<mxfile host="65bd71144e">
    <diagram id="pVEeHwyCqmmrt9ToCioB" name="Page-1">
        <mxGraphModel dx="554" dy="520" grid="1" gridSize="10" guides="1" tooltips="1" connect="1" arrows="1" fold="1" page="1" pageScale="1" pageWidth="850" pageHeight="1100" math="0" shadow="0">
            <root>
                <mxCell id="0"/>
                <mxCell id="1" parent="0"/>
                <mxCell id="2" value="" style="rounded=0;whiteSpace=wrap;html=1;" vertex="1" parent="1">
                    <mxGeometry x="60" y="50" width="460" height="440" as="geometry"/>
                </mxCell>
                <mxCell id="4" value="NAVBAR" style="rounded=0;whiteSpace=wrap;html=1;" vertex="1" parent="1">
                    <mxGeometry x="70" y="60" width="440" height="30" as="geometry"/>
                </mxCell>
                <mxCell id="7" value="MEDITATIONS" style="rounded=0;whiteSpace=wrap;html=1;" vertex="1" parent="1">
                    <mxGeometry x="130" y="110" width="320" height="40" as="geometry"/>
                </mxCell>
                <mxCell id="8" value="Meditation Card" style="rounded=1;whiteSpace=wrap;html=1;" vertex="1" parent="1">
                    <mxGeometry x="100" y="180" width="180" height="90" as="geometry"/>
                </mxCell>
                <mxCell id="9" value="Meditation Card" style="rounded=1;whiteSpace=wrap;html=1;" vertex="1" parent="1">
                    <mxGeometry x="100" y="280" width="180" height="90" as="geometry"/>
                </mxCell>
                <mxCell id="11" value="Meditation Card" style="rounded=1;whiteSpace=wrap;html=1;" vertex="1" parent="1">
                    <mxGeometry x="100" y="380" width="180" height="90" as="geometry"/>
                </mxCell>
                <mxCell id="13" value="Play Link" style="triangle;whiteSpace=wrap;html=1;align=left;" vertex="1" parent="1">
                    <mxGeometry x="345" y="197.5" width="80" height="55" as="geometry"/>
                </mxCell>
                <mxCell id="14" value="Play Link" style="triangle;whiteSpace=wrap;html=1;align=left;" vertex="1" parent="1">
                    <mxGeometry x="345" y="297.5" width="80" height="55" as="geometry"/>
                </mxCell>
                <mxCell id="15" value="Play Link" style="triangle;whiteSpace=wrap;html=1;align=left;" vertex="1" parent="1">
                    <mxGeometry x="345" y="397.5" width="80" height="55" as="geometry"/>
                </mxCell>
            </root>
        </mxGraphModel>
    </diagram>
</mxfile>